<?xml version="1.0" encoding="utf-8"?>
<!-- Generator: Adobe Illustrator 16.0.0, SVG Export Plug-In . SVG Version: 6.00 Build 0)  -->
<!DOCTYPE svg PUBLIC "-//W3C//DTD SVG 1.1//EN" "http://www.w3.org/Graphics/SVG/1.1/DTD/svg11.dtd">
<svg version="1.1" id="Layer_1" xmlns="http://www.w3.org/2000/svg" xmlns:xlink="http://www.w3.org/1999/xlink" x="0px" y="0px"
	 width="470px" height="360px" viewBox="0 0 470 360" enable-background="new 0 0 470 360" xml:space="preserve">
<path fill="#FFFFFF" d="M189.456,139.984c0,0-5.744-44.097,41.317-62.81c47.06-18.713,72.814,10.447,83.214,30.805
	c8.829,17.278,10.721,32.28,10.721,32.28h-24.683c0,0-12.752-48.316-48.501-47.522c-30.557,0.679-38.433,36.194-37.891,47.247
	C213.6,139.951,189.456,139.984,189.456,139.984"/>
<path fill="#FFFFFF" d="M300.024,140.259c0,0-3.899-34.541,15.234-58.824c23.674-30.043,63.581-21.536,63.581-21.536v20.425
	c0,0-24.866-9.615-43.015,11.858c-13.155,15.563-11.117,48.077-11.117,48.077H300.024z"/>
<g opacity="0.8">
	<g>
		<defs>
			<rect id="SVGID_1_" x="75.414" y="83.569" width="54.149" height="57.155"/>
		</defs>
		<use xlink:href="#SVGID_1_"  overflow="visible" fill="#FFFFFF"/>
		<clipPath id="SVGID_2_">
			<use xlink:href="#SVGID_1_"  overflow="visible"/>
		</clipPath>
		<path clip-path="url(#SVGID_2_)" fill="#FFFFFF" d="M75.414,100.118c0,0,19.439-2.843,29.102,11.774
			c7.771,11.758,3.975,28.832,3.975,28.832h20.89c0,0,2.675-23.346-12.417-40.438c-16.485-18.671-41.549-16.653-41.549-16.653
			V100.118z"/>
	</g>
</g>
<g opacity="0.8">
	<g>
		<defs>
			<rect id="SVGID_3_" x="108.305" y="102.482" width="101.717" height="38.242"/>
		</defs>
		<use xlink:href="#SVGID_3_"  overflow="visible" fill="#FFFFFF"/>
		<clipPath id="SVGID_4_">
			<use xlink:href="#SVGID_3_"  overflow="visible"/>
		</clipPath>
		<path clip-path="url(#SVGID_4_)" fill="#FFFFFF" d="M108.305,140.724c0,0,10.19-40.205,52.989-38.167
			c35.766,1.703,48.728,37.981,48.728,37.981l-20.566-0.556c0,0-6.689-17.869-26.68-21.677
			c-23.345-4.447-33.536,22.232-33.536,22.232"/>
	</g>
</g>
<path fill="#FFFFFF" d="M155.747,71.289c0,10.317-8.364,18.681-18.682,18.681c-10.316,0-18.68-8.364-18.68-18.681
	s8.364-18.681,18.68-18.681C147.383,52.607,155.747,60.972,155.747,71.289"/>
<path fill="#FFFFFF" d="M318.099,26.794c0,13.694-11.1,24.795-24.794,24.795c-13.693,0-24.794-11.101-24.794-24.795
	S279.611,2,293.305,2C306.999,2,318.099,13.101,318.099,26.794"/>
<path fill="#FFFFFF" d="M3.592,185.393h60.917c7.267,0,13.734,1.225,19.404,3.672c5.669,2.447,10.036,5.76,13.104,9.934
	c3.065,4.176,4.6,8.762,4.6,13.762c0,4.02-1.031,7.691-3.092,11.016c-2.063,3.324-4.961,6.096-8.698,8.311
	c-3.737,2.217-7.846,3.607-12.33,4.174v0.309c5.617,0.516,10.629,1.973,15.035,4.369c4.407,2.396,7.833,5.438,10.282,9.121
	c2.448,3.686,3.672,7.77,3.672,12.254c0,4.588-1.302,9.006-3.904,13.258c-2.603,4.252-6.726,7.758-12.369,10.514
	c-5.644,2.758-12.846,4.137-21.608,4.137H3.592v-5.025H7.07c3.917,0,6.932-0.465,9.045-1.393c2.113-0.928,3.62-2.563,4.522-4.908
	c0.901-2.344,1.353-5.656,1.353-9.934v-63.314c0-5.256-0.94-9.121-2.821-11.596c-1.882-2.473-5.477-3.711-10.784-3.711H3.592
	V185.393z M43.482,193.742v37.879c2.268,0.516,5.644,0.773,10.127,0.773c5.206,0,9.753-0.785,13.645-2.357
	c3.891-1.572,6.841-3.801,8.852-6.688c2.009-2.885,3.015-6.313,3.015-10.281c0-4.176-1.019-7.781-3.054-10.822
	c-2.036-3.041-4.975-5.373-8.813-6.996c-3.84-1.623-8.337-2.436-13.49-2.436C50.671,192.814,47.243,193.123,43.482,193.742
	 M43.482,240.975v39.273c4.689,1.391,9.379,2.086,14.07,2.086c5.205,0,9.688-0.822,13.451-2.473c3.762-1.65,6.66-4.033,8.697-7.15
	c2.035-3.119,3.053-6.738,3.053-10.863c0-4.328-1.225-8.168-3.672-11.518c-2.448-3.35-5.927-5.926-10.437-7.73
	c-4.51-1.805-9.729-2.705-15.655-2.705C49.331,239.895,46.161,240.254,43.482,240.975"/>
<path fill="#FFFFFF" d="M140.813,215.773v16.158h0.309c2.319-5.309,5.076-9.328,8.272-12.061c3.195-2.73,6.622-4.098,10.282-4.098
	c2.164,0,4.032,0.387,5.604,1.16c1.571,0.773,2.795,1.881,3.672,3.324c0.876,1.443,1.314,3.17,1.314,5.18
	c0,2.834-0.709,5.102-2.125,6.803c-1.418,1.701-3.363,2.551-5.837,2.551c-1.701,0-2.899-0.244-3.595-0.734
	c-0.695-0.488-1.881-1.354-3.556-2.59c-1.675-1.236-3.131-1.855-4.368-1.855c-1.443,0-3.196,1.342-5.257,4.021
	c-2.062,2.68-3.633,5.23-4.716,7.652v32.701c0,3.35,0.296,5.797,0.889,7.344c0.592,1.545,1.558,2.578,2.899,3.092
	c1.339,0.516,3.375,0.773,6.107,0.773h2.552v5.025h-42.209v-5.025c3.04,0,5.32-0.232,6.841-0.695c1.52-0.465,2.577-1.482,3.17-3.055
	c0.592-1.57,0.889-4.059,0.889-7.459v-35.639c0-8.4-2.294-12.602-6.88-12.602c-0.619,0-1.314,0.129-2.087,0.387v-4.869l21.414-5.49
	H140.813z"/>
<path fill="#FFFFFF" d="M211.784,290.221h-40.431v-5.025c0.566,0.051,1.365,0.076,2.396,0.076c2.319,0,4.136-0.334,5.45-1.004
	s2.216-1.805,2.705-3.402c0.49-1.596,0.735-3.891,0.735-6.879v-35.793c0-8.299-2.319-12.447-6.957-12.447
	c-1.135,0-2.242,0.182-3.324,0.541l-1.005-4.947l23.5-5.566h6.649v58.213c0,3.299,0.296,5.721,0.888,7.266
	c0.592,1.547,1.585,2.59,2.977,3.131s3.529,0.813,6.416,0.813V290.221z M192.612,183.459c3.143,0,5.81,1.096,8.001,3.287
	c2.189,2.189,3.285,4.857,3.285,8c0,3.092-1.121,5.734-3.362,7.924c-2.242,2.191-4.884,3.287-7.924,3.287
	c-3.092,0-5.733-1.096-7.924-3.287c-2.191-2.189-3.286-4.832-3.286-7.924c0-3.143,1.069-5.811,3.208-8
	C186.749,184.555,189.416,183.459,192.612,183.459"/>
<path fill="#FFFFFF" d="M289.944,183.459v87.59c0,6.957,1.803,10.436,5.41,10.436c1.805,0,3.789-0.412,5.953-1.236v4.947
	l-23.578,7.963h-6.648v-8.582c-2.526,2.475-5.812,4.523-9.857,6.146s-7.873,2.436-11.479,2.436c-6.03,0-11.479-1.574-16.35-4.717
	c-4.87-3.143-8.658-7.471-11.364-12.986s-4.059-11.699-4.059-18.555c0-4.689,0.708-9.418,2.126-14.186
	c1.417-4.766,3.634-9.225,6.649-13.373c3.014-4.148,6.88-7.447,11.596-9.895c4.716-2.449,10.269-3.674,16.659-3.674
	c2.731,0,5.631,0.4,8.697,1.199c3.065,0.799,5.527,1.791,7.383,2.977v-16.391c0-4.02-0.516-6.904-1.546-8.658
	c-1.032-1.75-2.81-2.627-5.335-2.627c-1.805,0-3.84,0.283-6.106,0.85l-0.927-4.947l26.979-4.717H289.944z M271.081,277.154v-35.869
	c0-5.875-1.25-10.461-3.75-13.762c-2.5-3.297-6.377-4.947-11.635-4.947c-3.969,0-7.396,1.135-10.281,3.402
	c-2.887,2.268-5.09,5.516-6.609,9.74c-1.521,4.227-2.28,9.098-2.28,14.611c0,5.617,1.03,10.783,3.092,15.5
	c2.062,4.715,4.87,8.4,8.427,11.055s7.498,3.98,11.828,3.98C264.046,280.865,267.782,279.629,271.081,277.154"/>
<path fill="#FFFFFF" d="M466.058,263.781l3.942,2.164c-2.628,7.99-6.803,14.521-12.522,19.598
	c-5.722,5.076-12.422,7.615-20.101,7.615c-6.339,0-12.009-1.65-17.007-4.949c-5-3.297-8.891-7.896-11.674-13.799
	c-2.783-5.9-4.174-12.563-4.174-19.984c0-12.986,3.413-22.674,10.242-29.066c6.828-6.389,14.805-9.586,23.927-9.586
	c5.669,0,10.823,1.225,15.462,3.672c4.638,2.449,8.283,5.813,10.938,10.09c2.653,4.277,3.981,9.045,3.981,14.301v4.639h-47.621
	c0.463,8.4,2.949,15.203,7.46,20.408c4.51,5.207,10.089,7.809,16.737,7.809c4.122,0,8.052-1.211,11.789-3.633
	C461.175,270.637,464.048,267.543,466.058,263.781 M421.452,240.512h27.366c0.155-1.029,0.231-2.035,0.231-3.016
	c0-4.225-1.25-7.768-3.749-10.629c-2.5-2.861-5.604-4.291-9.315-4.291c-2.629,0-4.986,0.748-7.073,2.242
	c-2.087,1.496-3.813,3.621-5.179,6.379C422.366,233.955,421.606,237.061,421.452,240.512"/>
<path fill="#FFFFFF" d="M211.711,346.676l0.927,0.197l-3.257,10.334h-29.487v-1.039h1.432c1.61,0,2.761-0.523,3.454-1.572
	c0.394-0.6,0.589-1.984,0.589-4.156v-24.572c0-2.377-0.262-3.867-0.786-4.465c-0.73-0.824-1.816-1.236-3.257-1.236h-1.432v-1.039
	h17.243v1.039c-2.022-0.018-3.44,0.168-4.254,0.563c-0.814,0.393-1.372,0.889-1.671,1.486c-0.3,0.602-0.449,2.033-0.449,4.297
	v23.928c0,1.555,0.149,2.621,0.449,3.201c0.225,0.393,0.57,0.684,1.039,0.871c0.468,0.188,1.928,0.281,4.381,0.281h2.78
	c2.92,0,4.97-0.217,6.149-0.646c1.18-0.432,2.256-1.193,3.23-2.289C209.764,350.762,210.738,349.035,211.711,346.676"/>
<path fill="#FFFFFF" d="M229.096,353.5c-2.64,2.041-4.296,3.221-4.971,3.539c-1.011,0.467-2.087,0.701-3.229,0.701
	c-1.778,0-3.243-0.607-4.395-1.826c-1.151-1.215-1.727-2.816-1.727-4.801c0-1.254,0.281-2.34,0.842-3.258
	c0.767-1.271,2.102-2.471,4.002-3.594c1.9-1.125,5.059-2.49,9.478-4.102v-1.01c0-2.564-0.407-4.324-1.221-5.279
	c-0.815-0.955-1.999-1.434-3.553-1.434c-1.179,0-2.115,0.318-2.807,0.955c-0.712,0.637-1.068,1.367-1.068,2.191l0.056,1.629
	c0,0.861-0.22,1.525-0.66,1.994c-0.44,0.467-1.016,0.701-1.727,0.701c-0.693,0-1.259-0.242-1.699-0.73
	c-0.44-0.486-0.66-1.15-0.66-1.994c0-1.609,0.824-3.088,2.471-4.436c1.647-1.35,3.959-2.023,6.937-2.023
	c2.284,0,4.156,0.385,5.617,1.152c1.104,0.58,1.918,1.488,2.443,2.723c0.337,0.807,0.505,2.453,0.505,4.943v8.734
	c0,2.451,0.047,3.955,0.14,4.508c0.094,0.551,0.248,0.922,0.463,1.107c0.215,0.188,0.463,0.281,0.744,0.281
	c0.299,0,0.562-0.064,0.787-0.197c0.393-0.242,1.152-0.926,2.275-2.049v1.572c-2.098,2.809-4.101,4.213-6.01,4.213
	c-0.917,0-1.648-0.318-2.19-0.955C229.395,356.121,229.114,355.035,229.096,353.5 M229.096,351.674v-9.799
	c-2.827,1.123-4.652,1.918-5.476,2.387c-1.479,0.822-2.537,1.684-3.173,2.582c-0.637,0.9-0.955,1.883-0.955,2.949
	c0,1.348,0.402,2.467,1.208,3.355c0.805,0.891,1.731,1.334,2.78,1.334C224.902,354.482,226.774,353.547,229.096,351.674"/>
<path fill="#FFFFFF" d="M245.946,335.92c2.49-3.463,5.178-5.195,8.06-5.195c2.64,0,4.942,1.129,6.909,3.385
	c1.965,2.256,2.948,5.34,2.948,9.254c0,4.566-1.517,8.246-4.55,11.035c-2.602,2.396-5.504,3.596-8.705,3.596
	c-1.498,0-3.02-0.273-4.563-0.814c-1.545-0.543-3.122-1.357-4.731-2.443v-26.65c0-2.92-0.07-4.719-0.211-5.393
	s-0.361-1.133-0.66-1.377c-0.3-0.242-0.674-0.365-1.123-0.365c-0.525,0-1.18,0.15-1.966,0.451l-0.393-0.984l7.722-3.145h1.264
	V335.92z M245.946,337.719v15.387c0.955,0.938,1.941,1.645,2.963,2.121c1.02,0.479,2.064,0.717,3.131,0.717
	c1.703,0,3.291-0.936,4.76-2.809c1.47-1.871,2.205-4.596,2.205-8.172c0-3.295-0.735-5.826-2.205-7.596
	c-1.469-1.77-3.141-2.654-5.012-2.654c-0.993,0-1.985,0.252-2.978,0.758C248.062,335.846,247.107,336.594,245.946,337.719"/>
<path fill="#FFFFFF" d="M288.858,349.316l-0.31,7.891h-22.69v-1.012l17.074-22.746h-8.425c-1.816,0-3.005,0.117-3.567,0.352
	c-0.561,0.234-1.02,0.678-1.375,1.334c-0.506,0.936-0.796,2.096-0.871,3.482h-1.123l0.168-7.135h21.568v1.041l-17.243,22.803h9.38
	c1.966,0,3.299-0.164,4.002-0.492c0.701-0.328,1.268-0.902,1.698-1.729c0.3-0.598,0.552-1.861,0.759-3.789H288.858z"/>
<path fill="#FFFFFF" d="M396.843,232.383c-0.41,0-5.203-1.061-14.375-3.184c3.217,4.52,4.826,9.824,4.826,15.918
	c0,6.299-1.764,11.963-5.289,16.994c-3.527,5.031-8.438,8.969-14.735,11.809c-6.3,2.842-13.419,4.262-21.358,4.262
	c-4.93,0-9.996-0.648-15.198-1.951c-4.657,4.451-6.983,7.873-6.983,10.27c0,2.465,1.387,4.363,4.159,5.699
	c2.772,1.334,7.307,2.207,13.606,2.619l25.877,1.744c8.626,0.549,15.693,2.945,21.205,7.189c5.51,4.244,8.266,10.473,8.266,18.688
	c0,6.914-2.191,13.059-6.571,18.434c-4.382,5.373-10.423,9.602-18.124,12.682s-16.448,4.621-26.236,4.621
	c-9.653,0-17.988-1.113-25.006-3.338s-12.27-5.066-15.762-8.523s-5.237-7.068-5.237-10.832c0-7.326,5.648-15.645,16.943-24.953
	c-3.424-1.369-6.128-3.303-8.112-5.803c-1.986-2.498-2.979-5.219-2.979-8.164c0-7.119,5.374-14.82,16.123-23.104
	c-6.23-2.807-10.954-6.605-14.171-11.398c-3.22-4.791-4.826-10.234-4.826-16.328c0-6.572,1.796-12.426,5.391-17.559
	c3.593-5.135,8.677-9.139,15.249-12.016c6.572-2.875,14.102-4.313,22.591-4.313c9.242,0,17.319,1.781,24.234,5.34
	c3.147-0.137,7.839-0.924,14.068-2.361c5.887-1.164,9.755-1.746,11.604-1.746c1.643,0,2.703,0.344,3.183,1.027
	c0.478,0.686,0.719,2.123,0.719,4.313v7.701c0,2.328-0.224,3.953-0.668,4.877C398.81,231.922,398.007,232.383,396.843,232.383
	 M367.577,317.1l-42.615-3.9c-1.986,1.572-3.646,3.781-4.98,6.623c-1.335,2.84-2.002,5.494-2.002,7.957
	c0,3.424,1.402,6.418,4.21,8.986c2.807,2.566,6.794,4.57,11.964,6.008c5.168,1.436,11.38,2.154,18.637,2.154
	c9.652,0,17.337-1.488,23.054-4.467c5.715-2.977,8.574-6.967,8.574-11.963C384.418,321.857,378.804,318.059,367.577,317.1
	 M363.06,249.02c0-7.873-1.456-14.752-4.364-20.641c-2.911-5.887-7.72-8.832-14.428-8.832c-5.204,0-9.362,1.986-12.477,5.957
	c-3.116,3.971-4.673,9.207-4.673,15.711c0,6.025,0.821,11.262,2.465,15.711c1.643,4.451,3.953,7.873,6.932,10.27
	c2.978,2.396,6.383,3.594,10.217,3.594c5.202,0,9.225-1.9,12.066-5.699C361.638,261.289,363.06,255.934,363.06,249.02"/>
</svg>
